<svg id="visual" viewBox="0 0 960 540" width="960" height="540" xmlns="http://www.w3.org/2000/svg" xmlns:xlink="http://www.w3.org/1999/xlink" version="1.1"><rect x="0" y="0" width="960" height="540" fill="#020533"></rect><path d="M0 302L107 302L107 325L213 325L213 304L320 304L320 291L427 291L427 270L533 270L533 320L640 320L640 375L747 375L747 342L853 342L853 293L960 293L960 329L960 541L960 541L853 541L853 541L747 541L747 541L640 541L640 541L533 541L533 541L427 541L427 541L320 541L320 541L213 541L213 541L107 541L107 541L0 541Z" fill="#1b008f"></path><path d="M0 399L107 399L107 390L213 390L213 419L320 419L320 323L427 323L427 387L533 387L533 375L640 375L640 402L747 402L747 401L853 401L853 335L960 335L960 407L960 541L960 541L853 541L853 541L747 541L747 541L640 541L640 541L533 541L533 541L427 541L427 541L320 541L320 541L213 541L213 541L107 541L107 541L0 541Z" fill="#1e28b3"></path><path d="M0 442L107 442L107 431L213 431L213 404L320 404L320 458L427 458L427 376L533 376L533 406L640 406L640 388L747 388L747 400L853 400L853 464L960 464L960 376L960 541L960 541L853 541L853 541L747 541L747 541L640 541L640 541L533 541L533 541L427 541L427 541L320 541L320 541L213 541L213 541L107 541L107 541L0 541Z" fill="#1a47d9"></path><path d="M0 501L107 501L107 474L213 474L213 508L320 508L320 453L427 453L427 447L533 447L533 470L640 470L640 449L747 449L747 487L853 487L853 438L960 438L960 479L960 541L960 541L853 541L853 541L747 541L747 541L640 541L640 541L533 541L533 541L427 541L427 541L320 541L320 541L213 541L213 541L107 541L107 541L0 541Z" fill="#0066ff"></path></svg>